<mxfile host="Electron" agent="Mozilla/5.0 (Macintosh; Intel Mac OS X 10_15_7) AppleWebKit/537.36 (KHTML, like Gecko) draw.io/24.7.17 Chrome/128.0.6613.36 Electron/32.0.1 Safari/537.36" version="24.7.17">
  <diagram name="Pagina-1" id="71zWn343JwvxkhXYZjDe">
    <mxGraphModel dx="1536" dy="1114" grid="1" gridSize="10" guides="1" tooltips="1" connect="1" arrows="1" fold="1" page="1" pageScale="1" pageWidth="827" pageHeight="1169" math="0" shadow="0">
      <root>
        <mxCell id="0" />
        <mxCell id="1" parent="0" />
        <mxCell id="NgLSc0mzdGRC1DNAPwiq-113" value="" style="endArrow=none;html=1;rounded=0;fillColor=#e51400;strokeColor=#B20000;movable=1;resizable=1;rotatable=1;deletable=1;editable=1;locked=0;connectable=1;" edge="1" parent="1" source="NgLSc0mzdGRC1DNAPwiq-114">
          <mxGeometry width="50" height="50" relative="1" as="geometry">
            <mxPoint x="179" y="379" as="sourcePoint" />
            <mxPoint x="209" y="379" as="targetPoint" />
          </mxGeometry>
        </mxCell>
        <mxCell id="NgLSc0mzdGRC1DNAPwiq-114" value="" style="shape=waypoint;sketch=0;fillStyle=solid;size=6;pointerEvents=1;points=[];fillColor=#e51400;resizable=1;rotatable=1;perimeter=centerPerimeter;snapToPoint=1;strokeColor=#B20000;rotation=90;movable=1;deletable=1;editable=1;locked=0;connectable=1;fontColor=#ffffff;" vertex="1" parent="1">
          <mxGeometry x="151" y="369" width="20" height="20" as="geometry" />
        </mxCell>
        <mxCell id="NgLSc0mzdGRC1DNAPwiq-109" value="&lt;font style=&quot;font-size: 13px;&quot;&gt;rst&lt;/font&gt;" style="text;html=1;align=center;verticalAlign=middle;whiteSpace=wrap;rounded=0;movable=1;resizable=1;rotatable=1;deletable=1;editable=1;locked=0;connectable=1;" vertex="1" parent="1">
          <mxGeometry x="120" y="430" width="30" height="20" as="geometry" />
        </mxCell>
        <mxCell id="NgLSc0mzdGRC1DNAPwiq-110" value="&lt;font style=&quot;font-size: 13px;&quot;&gt;set&lt;/font&gt;" style="text;html=1;align=center;verticalAlign=middle;whiteSpace=wrap;rounded=0;movable=1;resizable=1;rotatable=1;deletable=1;editable=1;locked=0;connectable=1;" vertex="1" parent="1">
          <mxGeometry x="120" y="460" width="30" height="20" as="geometry" />
        </mxCell>
        <mxCell id="NgLSc0mzdGRC1DNAPwiq-118" value="" style="group;rotation=90;movable=1;resizable=1;rotatable=1;deletable=1;editable=1;locked=0;connectable=1;" vertex="1" connectable="0" parent="1">
          <mxGeometry x="170" y="440" width="20" height="57.5" as="geometry" />
        </mxCell>
        <mxCell id="NgLSc0mzdGRC1DNAPwiq-119" value="" style="endArrow=none;html=1;rounded=0;fillColor=#a0522d;strokeColor=#6D1F00;movable=1;resizable=1;rotatable=1;deletable=1;editable=1;locked=0;connectable=1;" edge="1" parent="NgLSc0mzdGRC1DNAPwiq-118" source="NgLSc0mzdGRC1DNAPwiq-120">
          <mxGeometry width="50" height="50" relative="1" as="geometry">
            <mxPoint x="9" y="29" as="sourcePoint" />
            <mxPoint x="39" y="29" as="targetPoint" />
          </mxGeometry>
        </mxCell>
        <mxCell id="NgLSc0mzdGRC1DNAPwiq-120" value="" style="shape=waypoint;sketch=0;fillStyle=solid;size=6;pointerEvents=1;points=[];fillColor=#a0522d;resizable=1;rotatable=1;perimeter=centerPerimeter;snapToPoint=1;strokeColor=#6D1F00;rotation=90;movable=1;deletable=1;editable=1;locked=0;connectable=1;fontColor=#ffffff;" vertex="1" parent="NgLSc0mzdGRC1DNAPwiq-118">
          <mxGeometry x="-19" y="19" width="20" height="20" as="geometry" />
        </mxCell>
        <mxCell id="NgLSc0mzdGRC1DNAPwiq-103" value="" style="group;rotation=90;flipH=1;movable=1;resizable=1;rotatable=1;deletable=1;editable=1;locked=0;connectable=1;" vertex="1" connectable="0" parent="1">
          <mxGeometry x="890" y="472.5" width="20" height="57.5" as="geometry" />
        </mxCell>
        <mxCell id="NgLSc0mzdGRC1DNAPwiq-104" value="" style="endArrow=none;html=1;rounded=0;fillColor=#e1d5e7;strokeColor=#000000;movable=1;resizable=1;rotatable=1;deletable=1;editable=1;locked=0;connectable=1;" edge="1" parent="NgLSc0mzdGRC1DNAPwiq-103" source="NgLSc0mzdGRC1DNAPwiq-105">
          <mxGeometry width="50" height="50" relative="1" as="geometry">
            <mxPoint x="11" y="29" as="sourcePoint" />
            <mxPoint x="-19" y="29" as="targetPoint" />
          </mxGeometry>
        </mxCell>
        <mxCell id="NgLSc0mzdGRC1DNAPwiq-105" value="" style="shape=waypoint;sketch=0;fillStyle=solid;size=6;pointerEvents=1;points=[];fillColor=#e1d5e7;resizable=1;rotatable=1;perimeter=centerPerimeter;snapToPoint=1;strokeColor=#000000;rotation=90;movable=1;deletable=1;editable=1;locked=0;connectable=1;" vertex="1" parent="NgLSc0mzdGRC1DNAPwiq-103">
          <mxGeometry x="19" y="19" width="20" height="20" as="geometry" />
        </mxCell>
        <mxCell id="NgLSc0mzdGRC1DNAPwiq-107" value="&lt;font style=&quot;font-size: 13px;&quot;&gt;clk&lt;/font&gt;" style="text;html=1;align=center;verticalAlign=middle;whiteSpace=wrap;rounded=0;movable=1;resizable=1;rotatable=1;deletable=1;editable=1;locked=0;connectable=1;" vertex="1" parent="1">
          <mxGeometry x="120" y="370" width="30" height="20" as="geometry" />
        </mxCell>
        <mxCell id="NgLSc0mzdGRC1DNAPwiq-121" value="" style="group;rotation=90;movable=1;resizable=1;rotatable=1;deletable=1;editable=1;locked=0;connectable=1;" vertex="1" connectable="0" parent="1">
          <mxGeometry x="170" y="471.25" width="20" height="57.5" as="geometry" />
        </mxCell>
        <mxCell id="NgLSc0mzdGRC1DNAPwiq-122" value="" style="endArrow=none;html=1;rounded=0;fillColor=#e1d5e7;strokeColor=#9673a6;movable=1;resizable=1;rotatable=1;deletable=1;editable=1;locked=0;connectable=1;" edge="1" parent="NgLSc0mzdGRC1DNAPwiq-121" source="NgLSc0mzdGRC1DNAPwiq-123">
          <mxGeometry width="50" height="50" relative="1" as="geometry">
            <mxPoint x="9" y="29" as="sourcePoint" />
            <mxPoint x="39" y="29" as="targetPoint" />
          </mxGeometry>
        </mxCell>
        <mxCell id="NgLSc0mzdGRC1DNAPwiq-123" value="" style="shape=waypoint;sketch=0;fillStyle=solid;size=6;pointerEvents=1;points=[];fillColor=#e1d5e7;resizable=1;rotatable=1;perimeter=centerPerimeter;snapToPoint=1;strokeColor=#9673a6;rotation=90;movable=1;deletable=1;editable=1;locked=0;connectable=1;" vertex="1" parent="NgLSc0mzdGRC1DNAPwiq-121">
          <mxGeometry x="-19" y="19" width="20" height="20" as="geometry" />
        </mxCell>
        <mxCell id="NgLSc0mzdGRC1DNAPwiq-108" value="&lt;font style=&quot;font-size: 13px;&quot;&gt;en&lt;/font&gt;" style="text;html=1;align=center;verticalAlign=middle;whiteSpace=wrap;rounded=0;movable=1;resizable=1;rotatable=1;deletable=1;editable=1;locked=0;connectable=1;" vertex="1" parent="1">
          <mxGeometry x="120" y="400" width="30" height="20" as="geometry" />
        </mxCell>
        <mxCell id="NgLSc0mzdGRC1DNAPwiq-124" value="" style="group;rotation=90;movable=1;resizable=1;rotatable=1;deletable=1;editable=1;locked=0;connectable=1;" vertex="1" connectable="0" parent="1">
          <mxGeometry x="170" y="410" width="20" height="57.5" as="geometry" />
        </mxCell>
        <mxCell id="NgLSc0mzdGRC1DNAPwiq-125" value="" style="endArrow=none;html=1;rounded=0;fillColor=#e3c800;strokeColor=#B09500;movable=1;resizable=1;rotatable=1;deletable=1;editable=1;locked=0;connectable=1;" edge="1" parent="NgLSc0mzdGRC1DNAPwiq-124" source="NgLSc0mzdGRC1DNAPwiq-126">
          <mxGeometry width="50" height="50" relative="1" as="geometry">
            <mxPoint x="9" y="29" as="sourcePoint" />
            <mxPoint x="39" y="29" as="targetPoint" />
          </mxGeometry>
        </mxCell>
        <mxCell id="NgLSc0mzdGRC1DNAPwiq-126" value="" style="shape=waypoint;sketch=0;fillStyle=solid;size=6;pointerEvents=1;points=[];fillColor=#e3c800;resizable=1;rotatable=1;perimeter=centerPerimeter;snapToPoint=1;strokeColor=#B09500;rotation=90;movable=1;deletable=1;editable=1;locked=0;connectable=1;fontColor=#000000;" vertex="1" parent="NgLSc0mzdGRC1DNAPwiq-124">
          <mxGeometry x="-19" y="19" width="20" height="20" as="geometry" />
        </mxCell>
        <mxCell id="NgLSc0mzdGRC1DNAPwiq-97" value="&lt;font style=&quot;font-size: 13px;&quot;&gt;count&lt;/font&gt;" style="text;html=1;align=center;verticalAlign=middle;whiteSpace=wrap;rounded=0;movable=1;resizable=1;rotatable=1;deletable=1;editable=1;locked=0;connectable=1;" vertex="1" parent="1">
          <mxGeometry x="925" y="491.25" width="40" height="20" as="geometry" />
        </mxCell>
        <mxCell id="NgLSc0mzdGRC1DNAPwiq-98" value="&lt;font style=&quot;font-size: 13px;&quot;&gt;counter&lt;/font&gt;" style="text;html=1;align=center;verticalAlign=middle;whiteSpace=wrap;rounded=0;" vertex="1" parent="1">
          <mxGeometry x="925" y="451.25" width="50" height="20" as="geometry" />
        </mxCell>
        <mxCell id="NgLSc0mzdGRC1DNAPwiq-111" value="&lt;font style=&quot;font-size: 13px;&quot;&gt;v_set&lt;/font&gt;" style="text;html=1;align=center;verticalAlign=middle;whiteSpace=wrap;rounded=0;movable=1;resizable=1;rotatable=1;deletable=1;editable=1;locked=0;connectable=1;" vertex="1" parent="1">
          <mxGeometry x="110" y="490" width="40" height="20" as="geometry" />
        </mxCell>
        <mxCell id="NgLSc0mzdGRC1DNAPwiq-115" value="" style="group;rotation=90;movable=1;resizable=1;rotatable=1;deletable=1;editable=1;locked=0;connectable=1;" vertex="1" connectable="0" parent="1">
          <mxGeometry x="170" y="380" width="20" height="57.5" as="geometry" />
        </mxCell>
        <mxCell id="NgLSc0mzdGRC1DNAPwiq-116" value="" style="endArrow=none;html=1;rounded=0;fillColor=#60a917;strokeColor=#2D7600;movable=1;resizable=1;rotatable=1;deletable=1;editable=1;locked=0;connectable=1;" edge="1" parent="NgLSc0mzdGRC1DNAPwiq-115" source="NgLSc0mzdGRC1DNAPwiq-117">
          <mxGeometry width="50" height="50" relative="1" as="geometry">
            <mxPoint x="9" y="29" as="sourcePoint" />
            <mxPoint x="39" y="29" as="targetPoint" />
          </mxGeometry>
        </mxCell>
        <mxCell id="NgLSc0mzdGRC1DNAPwiq-117" value="" style="shape=waypoint;sketch=0;fillStyle=solid;size=6;pointerEvents=1;points=[];fillColor=#60a917;resizable=1;rotatable=1;perimeter=centerPerimeter;snapToPoint=1;strokeColor=#2D7600;rotation=90;movable=1;deletable=1;editable=1;locked=0;connectable=1;fontColor=#ffffff;" vertex="1" parent="NgLSc0mzdGRC1DNAPwiq-115">
          <mxGeometry x="-19" y="19" width="20" height="20" as="geometry" />
        </mxCell>
        <mxCell id="NgLSc0mzdGRC1DNAPwiq-99" value="" style="group;rotation=90;flipH=1;movable=1;resizable=1;rotatable=1;deletable=1;editable=1;locked=0;connectable=1;" vertex="1" connectable="0" parent="1">
          <mxGeometry x="890" y="433.75" width="20" height="57.5" as="geometry" />
        </mxCell>
        <mxCell id="NgLSc0mzdGRC1DNAPwiq-100" value="" style="endArrow=none;html=1;rounded=0;fillColor=#0050ef;strokeColor=#001DBC;movable=1;resizable=1;rotatable=1;deletable=1;editable=1;locked=0;connectable=1;" edge="1" parent="NgLSc0mzdGRC1DNAPwiq-99" source="NgLSc0mzdGRC1DNAPwiq-102">
          <mxGeometry width="50" height="50" relative="1" as="geometry">
            <mxPoint x="11" y="29" as="sourcePoint" />
            <mxPoint x="-19" y="29" as="targetPoint" />
          </mxGeometry>
        </mxCell>
        <mxCell id="NgLSc0mzdGRC1DNAPwiq-101" value="//" style="edgeLabel;html=1;align=center;verticalAlign=middle;resizable=1;points=[];movable=1;rotatable=1;deletable=1;editable=1;locked=0;connectable=1;" vertex="1" connectable="0" parent="NgLSc0mzdGRC1DNAPwiq-100">
          <mxGeometry x="0.1069" relative="1" as="geometry">
            <mxPoint as="offset" />
          </mxGeometry>
        </mxCell>
        <mxCell id="NgLSc0mzdGRC1DNAPwiq-102" value="" style="shape=waypoint;sketch=0;fillStyle=solid;size=6;pointerEvents=1;points=[];fillColor=#0050ef;resizable=1;rotatable=1;perimeter=centerPerimeter;snapToPoint=1;strokeColor=#001DBC;rotation=90;movable=1;deletable=1;editable=1;locked=0;connectable=1;fontColor=#ffffff;" vertex="1" parent="NgLSc0mzdGRC1DNAPwiq-99">
          <mxGeometry x="19" y="19" width="20" height="20" as="geometry" />
        </mxCell>
        <mxCell id="NgLSc0mzdGRC1DNAPwiq-92" value="" style="rounded=0;whiteSpace=wrap;html=1;movable=1;resizable=1;rotatable=1;deletable=1;editable=1;locked=0;connectable=1;" vertex="1" parent="1">
          <mxGeometry x="200" y="320" width="680" height="360" as="geometry" />
        </mxCell>
        <mxCell id="NgLSc0mzdGRC1DNAPwiq-75" value="" style="group;rotation=90;movable=1;resizable=1;rotatable=1;deletable=1;editable=1;locked=0;connectable=1;" vertex="1" connectable="0" parent="1">
          <mxGeometry x="770" y="580" width="31" height="57.5" as="geometry" />
        </mxCell>
        <mxCell id="NgLSc0mzdGRC1DNAPwiq-77" value="" style="shape=waypoint;sketch=0;fillStyle=solid;size=6;pointerEvents=1;points=[];fillColor=#0050ef;resizable=1;rotatable=1;perimeter=centerPerimeter;snapToPoint=1;strokeColor=#001DBC;rotation=90;movable=1;deletable=1;editable=1;locked=0;connectable=1;fontColor=#ffffff;" vertex="1" parent="NgLSc0mzdGRC1DNAPwiq-75">
          <mxGeometry x="-19" y="19" width="20" height="20" as="geometry" />
        </mxCell>
        <mxCell id="NgLSc0mzdGRC1DNAPwiq-76" value="" style="endArrow=none;html=1;rounded=0;fillColor=#0050ef;strokeColor=#001DBC;movable=1;resizable=1;rotatable=1;deletable=1;editable=1;locked=0;connectable=1;" edge="1" parent="NgLSc0mzdGRC1DNAPwiq-75" source="NgLSc0mzdGRC1DNAPwiq-77">
          <mxGeometry width="50" height="50" relative="1" as="geometry">
            <mxPoint x="9" y="29" as="sourcePoint" />
            <mxPoint x="39" y="29" as="targetPoint" />
          </mxGeometry>
        </mxCell>
        <mxCell id="NgLSc0mzdGRC1DNAPwiq-78" value="" style="verticalLabelPosition=bottom;shadow=0;dashed=0;align=center;html=1;verticalAlign=top;shape=mxgraph.electrical.logic_gates.inverter_2;movable=1;resizable=1;rotatable=1;deletable=1;editable=1;locked=0;connectable=1;" vertex="1" parent="NgLSc0mzdGRC1DNAPwiq-75">
          <mxGeometry x="1" y="19" width="30" height="20" as="geometry" />
        </mxCell>
        <mxCell id="NgLSc0mzdGRC1DNAPwiq-13" value="&lt;font style=&quot;font-size: 13px;&quot;&gt;rst&lt;/font&gt;" style="text;html=1;align=center;verticalAlign=middle;whiteSpace=wrap;rounded=0;movable=1;resizable=1;rotatable=1;deletable=1;editable=1;locked=0;connectable=1;" vertex="1" parent="1">
          <mxGeometry x="320" y="460" width="30" height="20" as="geometry" />
        </mxCell>
        <mxCell id="NgLSc0mzdGRC1DNAPwiq-106" value="&lt;font style=&quot;font-size: 10px;&quot;&gt;6&lt;/font&gt;" style="text;html=1;align=center;verticalAlign=middle;whiteSpace=wrap;rounded=0;movable=1;resizable=1;rotatable=1;deletable=1;editable=1;locked=0;connectable=1;" vertex="1" parent="1">
          <mxGeometry x="880" y="445" width="30" height="10" as="geometry" />
        </mxCell>
        <mxCell id="NgLSc0mzdGRC1DNAPwiq-14" value="&lt;font style=&quot;font-size: 13px;&quot;&gt;set&lt;/font&gt;" style="text;html=1;align=center;verticalAlign=middle;whiteSpace=wrap;rounded=0;movable=1;resizable=1;rotatable=1;deletable=1;editable=1;locked=0;connectable=1;" vertex="1" parent="1">
          <mxGeometry x="280" y="500" width="30" height="20" as="geometry" />
        </mxCell>
        <mxCell id="NgLSc0mzdGRC1DNAPwiq-15" value="&lt;font style=&quot;font-size: 13px;&quot;&gt;v_set&lt;/font&gt;" style="text;html=1;align=center;verticalAlign=middle;whiteSpace=wrap;rounded=0;movable=1;resizable=1;rotatable=1;deletable=1;editable=1;locked=0;connectable=1;" vertex="1" parent="1">
          <mxGeometry x="270" y="530" width="40" height="20" as="geometry" />
        </mxCell>
        <mxCell id="NgLSc0mzdGRC1DNAPwiq-16" value="&lt;font style=&quot;font-size: 13px;&quot;&gt;count&lt;/font&gt;" style="text;html=1;align=center;verticalAlign=middle;whiteSpace=wrap;rounded=0;movable=1;resizable=1;rotatable=1;deletable=1;editable=1;locked=0;connectable=1;" vertex="1" parent="1">
          <mxGeometry x="530" y="490" width="40" height="20" as="geometry" />
        </mxCell>
        <mxCell id="NgLSc0mzdGRC1DNAPwiq-17" value="&lt;font style=&quot;font-size: 13px;&quot;&gt;counter&lt;/font&gt;" style="text;html=1;align=center;verticalAlign=middle;whiteSpace=wrap;rounded=0;movable=1;resizable=1;rotatable=1;deletable=1;editable=1;locked=0;connectable=1;" vertex="1" parent="1">
          <mxGeometry x="530" y="450" width="50" height="20" as="geometry" />
        </mxCell>
        <mxCell id="NgLSc0mzdGRC1DNAPwiq-19" value="&lt;font style=&quot;font-size: 10px;&quot;&gt;6&lt;/font&gt;" style="text;html=1;align=center;verticalAlign=middle;whiteSpace=wrap;rounded=0;movable=1;resizable=1;rotatable=1;deletable=1;editable=1;locked=0;connectable=1;" vertex="1" parent="1">
          <mxGeometry x="490" y="445" width="30" height="10" as="geometry" />
        </mxCell>
        <mxCell id="NgLSc0mzdGRC1DNAPwiq-20" value="" style="group;rotation=90;movable=1;resizable=1;rotatable=1;deletable=1;editable=1;locked=0;connectable=1;" vertex="1" connectable="0" parent="1">
          <mxGeometry x="330" y="390" width="20" height="57.5" as="geometry" />
        </mxCell>
        <mxCell id="NgLSc0mzdGRC1DNAPwiq-21" value="" style="endArrow=none;html=1;rounded=0;fillColor=#e51400;strokeColor=#B20000;movable=1;resizable=1;rotatable=1;deletable=1;editable=1;locked=0;connectable=1;" edge="1" parent="NgLSc0mzdGRC1DNAPwiq-20" source="NgLSc0mzdGRC1DNAPwiq-22">
          <mxGeometry width="50" height="50" relative="1" as="geometry">
            <mxPoint x="9" y="29" as="sourcePoint" />
            <mxPoint x="39" y="29" as="targetPoint" />
          </mxGeometry>
        </mxCell>
        <mxCell id="NgLSc0mzdGRC1DNAPwiq-22" value="" style="shape=waypoint;sketch=0;fillStyle=solid;size=6;pointerEvents=1;points=[];fillColor=#e51400;resizable=1;rotatable=1;perimeter=centerPerimeter;snapToPoint=1;strokeColor=#B20000;rotation=90;movable=1;deletable=1;editable=1;locked=0;connectable=1;fontColor=#ffffff;" vertex="1" parent="NgLSc0mzdGRC1DNAPwiq-20">
          <mxGeometry x="-19" y="19" width="20" height="20" as="geometry" />
        </mxCell>
        <mxCell id="NgLSc0mzdGRC1DNAPwiq-23" value="" style="group;rotation=90;movable=1;resizable=1;rotatable=1;deletable=1;editable=1;locked=0;connectable=1;" vertex="1" connectable="0" parent="1">
          <mxGeometry x="330" y="420" width="20" height="57.5" as="geometry" />
        </mxCell>
        <mxCell id="NgLSc0mzdGRC1DNAPwiq-24" value="" style="endArrow=none;html=1;rounded=0;fillColor=#60a917;strokeColor=#2D7600;movable=1;resizable=1;rotatable=1;deletable=1;editable=1;locked=0;connectable=1;" edge="1" parent="NgLSc0mzdGRC1DNAPwiq-23" source="NgLSc0mzdGRC1DNAPwiq-25">
          <mxGeometry width="50" height="50" relative="1" as="geometry">
            <mxPoint x="9" y="29" as="sourcePoint" />
            <mxPoint x="39" y="29" as="targetPoint" />
          </mxGeometry>
        </mxCell>
        <mxCell id="NgLSc0mzdGRC1DNAPwiq-25" value="" style="shape=waypoint;sketch=0;fillStyle=solid;size=6;pointerEvents=1;points=[];fillColor=#60a917;resizable=1;rotatable=1;perimeter=centerPerimeter;snapToPoint=1;strokeColor=#2D7600;rotation=90;movable=1;deletable=1;editable=1;locked=0;connectable=1;fontColor=#ffffff;" vertex="1" parent="NgLSc0mzdGRC1DNAPwiq-23">
          <mxGeometry x="-19" y="19" width="20" height="20" as="geometry" />
        </mxCell>
        <mxCell id="NgLSc0mzdGRC1DNAPwiq-26" value="" style="group;rotation=90;movable=1;resizable=1;rotatable=1;deletable=1;editable=1;locked=0;connectable=1;" vertex="1" connectable="0" parent="1">
          <mxGeometry x="330" y="480" width="20" height="57.5" as="geometry" />
        </mxCell>
        <mxCell id="NgLSc0mzdGRC1DNAPwiq-27" value="" style="endArrow=none;html=1;rounded=0;fillColor=#a0522d;strokeColor=#6D1F00;movable=1;resizable=1;rotatable=1;deletable=1;editable=1;locked=0;connectable=1;" edge="1" parent="NgLSc0mzdGRC1DNAPwiq-26" source="NgLSc0mzdGRC1DNAPwiq-28">
          <mxGeometry width="50" height="50" relative="1" as="geometry">
            <mxPoint x="9" y="29" as="sourcePoint" />
            <mxPoint x="39" y="29" as="targetPoint" />
          </mxGeometry>
        </mxCell>
        <mxCell id="NgLSc0mzdGRC1DNAPwiq-28" value="" style="shape=waypoint;sketch=0;fillStyle=solid;size=6;pointerEvents=1;points=[];fillColor=#a0522d;resizable=1;rotatable=1;perimeter=centerPerimeter;snapToPoint=1;strokeColor=#6D1F00;rotation=90;movable=1;deletable=1;editable=1;locked=0;connectable=1;fontColor=#ffffff;" vertex="1" parent="NgLSc0mzdGRC1DNAPwiq-26">
          <mxGeometry x="-19" y="19" width="20" height="20" as="geometry" />
        </mxCell>
        <mxCell id="NgLSc0mzdGRC1DNAPwiq-29" value="" style="group;rotation=90;movable=1;resizable=1;rotatable=1;deletable=1;editable=1;locked=0;connectable=1;" vertex="1" connectable="0" parent="1">
          <mxGeometry x="330" y="511.25" width="20" height="57.5" as="geometry" />
        </mxCell>
        <mxCell id="NgLSc0mzdGRC1DNAPwiq-30" value="" style="endArrow=none;html=1;rounded=0;fillColor=#e1d5e7;strokeColor=#9673a6;movable=1;resizable=1;rotatable=1;deletable=1;editable=1;locked=0;connectable=1;" edge="1" parent="NgLSc0mzdGRC1DNAPwiq-29" source="NgLSc0mzdGRC1DNAPwiq-31">
          <mxGeometry width="50" height="50" relative="1" as="geometry">
            <mxPoint x="9" y="29" as="sourcePoint" />
            <mxPoint x="39" y="29" as="targetPoint" />
          </mxGeometry>
        </mxCell>
        <mxCell id="NgLSc0mzdGRC1DNAPwiq-31" value="" style="shape=waypoint;sketch=0;fillStyle=solid;size=6;pointerEvents=1;points=[];fillColor=#e1d5e7;resizable=1;rotatable=1;perimeter=centerPerimeter;snapToPoint=1;strokeColor=#9673a6;rotation=90;movable=1;deletable=1;editable=1;locked=0;connectable=1;" vertex="1" parent="NgLSc0mzdGRC1DNAPwiq-29">
          <mxGeometry x="-19" y="19" width="20" height="20" as="geometry" />
        </mxCell>
        <mxCell id="NgLSc0mzdGRC1DNAPwiq-33" value="" style="endArrow=none;html=1;rounded=0;entryX=0;entryY=0.5;entryDx=0;entryDy=0;movable=1;resizable=1;rotatable=1;deletable=1;editable=1;locked=0;connectable=1;" edge="1" parent="1" target="NgLSc0mzdGRC1DNAPwiq-1">
          <mxGeometry width="50" height="50" relative="1" as="geometry">
            <mxPoint x="230" y="480" as="sourcePoint" />
            <mxPoint x="440" y="460" as="targetPoint" />
          </mxGeometry>
        </mxCell>
        <mxCell id="NgLSc0mzdGRC1DNAPwiq-38" value="" style="group;rotation=90;movable=1;resizable=1;rotatable=1;deletable=1;editable=1;locked=0;connectable=1;" vertex="1" connectable="0" parent="1">
          <mxGeometry x="300" y="580" width="20" height="57.5" as="geometry" />
        </mxCell>
        <mxCell id="NgLSc0mzdGRC1DNAPwiq-39" value="" style="endArrow=none;html=1;rounded=0;fillColor=#0050ef;strokeColor=#001DBC;movable=1;resizable=1;rotatable=1;deletable=1;editable=1;locked=0;connectable=1;" edge="1" parent="NgLSc0mzdGRC1DNAPwiq-38" source="NgLSc0mzdGRC1DNAPwiq-40">
          <mxGeometry width="50" height="50" relative="1" as="geometry">
            <mxPoint x="9" y="29" as="sourcePoint" />
            <mxPoint x="39" y="29" as="targetPoint" />
          </mxGeometry>
        </mxCell>
        <mxCell id="NgLSc0mzdGRC1DNAPwiq-40" value="" style="shape=waypoint;sketch=0;fillStyle=solid;size=6;pointerEvents=1;points=[];fillColor=#0050ef;resizable=1;rotatable=1;perimeter=centerPerimeter;snapToPoint=1;strokeColor=#001DBC;rotation=90;movable=1;deletable=1;editable=1;locked=0;connectable=1;fontColor=#ffffff;" vertex="1" parent="NgLSc0mzdGRC1DNAPwiq-38">
          <mxGeometry x="-19" y="19" width="20" height="20" as="geometry" />
        </mxCell>
        <mxCell id="NgLSc0mzdGRC1DNAPwiq-41" value="" style="group;rotation=90;movable=1;resizable=1;rotatable=1;deletable=1;editable=1;locked=0;connectable=1;" vertex="1" connectable="0" parent="1">
          <mxGeometry x="300" y="600" width="20" height="57.5" as="geometry" />
        </mxCell>
        <mxCell id="NgLSc0mzdGRC1DNAPwiq-42" value="" style="endArrow=none;html=1;rounded=0;fillColor=#0050ef;strokeColor=#001DBC;movable=1;resizable=1;rotatable=1;deletable=1;editable=1;locked=0;connectable=1;" edge="1" parent="NgLSc0mzdGRC1DNAPwiq-41" source="NgLSc0mzdGRC1DNAPwiq-43">
          <mxGeometry width="50" height="50" relative="1" as="geometry">
            <mxPoint x="9" y="29" as="sourcePoint" />
            <mxPoint x="39" y="29" as="targetPoint" />
          </mxGeometry>
        </mxCell>
        <mxCell id="NgLSc0mzdGRC1DNAPwiq-43" value="" style="shape=waypoint;sketch=0;fillStyle=solid;size=6;pointerEvents=1;points=[];fillColor=#0050ef;resizable=1;rotatable=1;perimeter=centerPerimeter;snapToPoint=1;strokeColor=#001DBC;rotation=90;movable=1;deletable=1;editable=1;locked=0;connectable=1;fontColor=#ffffff;" vertex="1" parent="NgLSc0mzdGRC1DNAPwiq-41">
          <mxGeometry x="-19" y="19" width="20" height="20" as="geometry" />
        </mxCell>
        <mxCell id="NgLSc0mzdGRC1DNAPwiq-71" value="&lt;font style=&quot;font-size: 13px;&quot;&gt;counter(4)&lt;/font&gt;" style="text;html=1;align=center;verticalAlign=middle;whiteSpace=wrap;rounded=0;movable=1;resizable=1;rotatable=1;deletable=1;editable=1;locked=0;connectable=1;" vertex="1" parent="NgLSc0mzdGRC1DNAPwiq-41">
          <mxGeometry x="-40" y="30" width="50" height="20" as="geometry" />
        </mxCell>
        <mxCell id="NgLSc0mzdGRC1DNAPwiq-36" value="" style="shape=or;whiteSpace=wrap;html=1;movable=1;resizable=1;rotatable=1;deletable=1;editable=1;locked=0;connectable=1;" vertex="1" parent="1">
          <mxGeometry x="320" y="600" width="40" height="40" as="geometry" />
        </mxCell>
        <mxCell id="NgLSc0mzdGRC1DNAPwiq-47" value="" style="group;movable=1;resizable=1;rotatable=1;deletable=1;editable=1;locked=0;connectable=1;" vertex="1" connectable="0" parent="1">
          <mxGeometry x="391.25" y="598.75" width="88.75" height="41.25" as="geometry" />
        </mxCell>
        <mxCell id="NgLSc0mzdGRC1DNAPwiq-44" value="" style="group;rotation=90;movable=1;resizable=1;rotatable=1;deletable=1;editable=1;locked=0;connectable=1;" vertex="1" connectable="0" parent="NgLSc0mzdGRC1DNAPwiq-47">
          <mxGeometry x="18.75" y="-18.75" width="20" height="57.5" as="geometry" />
        </mxCell>
        <mxCell id="NgLSc0mzdGRC1DNAPwiq-45" value="" style="endArrow=none;html=1;rounded=0;fillColor=#0050ef;strokeColor=#001DBC;movable=1;resizable=1;rotatable=1;deletable=1;editable=1;locked=0;connectable=1;" edge="1" parent="NgLSc0mzdGRC1DNAPwiq-44" source="NgLSc0mzdGRC1DNAPwiq-46">
          <mxGeometry width="50" height="50" relative="1" as="geometry">
            <mxPoint x="9" y="29" as="sourcePoint" />
            <mxPoint x="39" y="29" as="targetPoint" />
          </mxGeometry>
        </mxCell>
        <mxCell id="NgLSc0mzdGRC1DNAPwiq-46" value="" style="shape=waypoint;sketch=0;fillStyle=solid;size=6;pointerEvents=1;points=[];fillColor=#0050ef;resizable=1;rotatable=1;perimeter=centerPerimeter;snapToPoint=1;strokeColor=#001DBC;rotation=90;movable=1;deletable=1;editable=1;locked=0;connectable=1;fontColor=#ffffff;" vertex="1" parent="NgLSc0mzdGRC1DNAPwiq-44">
          <mxGeometry x="-19" y="19" width="20" height="20" as="geometry" />
        </mxCell>
        <mxCell id="NgLSc0mzdGRC1DNAPwiq-37" value="" style="shape=or;whiteSpace=wrap;html=1;movable=1;resizable=1;rotatable=1;deletable=1;editable=1;locked=0;connectable=1;" vertex="1" parent="NgLSc0mzdGRC1DNAPwiq-47">
          <mxGeometry x="48.75" y="1.25" width="40" height="40" as="geometry" />
        </mxCell>
        <mxCell id="NgLSc0mzdGRC1DNAPwiq-48" value="" style="group;movable=1;resizable=1;rotatable=1;deletable=1;editable=1;locked=0;connectable=1;" vertex="1" connectable="0" parent="1">
          <mxGeometry x="510" y="600" width="88.75" height="41.25" as="geometry" />
        </mxCell>
        <mxCell id="NgLSc0mzdGRC1DNAPwiq-49" value="" style="group;rotation=90;movable=1;resizable=1;rotatable=1;deletable=1;editable=1;locked=0;connectable=1;" vertex="1" connectable="0" parent="NgLSc0mzdGRC1DNAPwiq-48">
          <mxGeometry x="18.75" y="-18.75" width="20" height="57.5" as="geometry" />
        </mxCell>
        <mxCell id="NgLSc0mzdGRC1DNAPwiq-50" value="" style="endArrow=none;html=1;rounded=0;fillColor=#0050ef;strokeColor=#001DBC;movable=1;resizable=1;rotatable=1;deletable=1;editable=1;locked=0;connectable=1;" edge="1" parent="NgLSc0mzdGRC1DNAPwiq-49" source="NgLSc0mzdGRC1DNAPwiq-51">
          <mxGeometry width="50" height="50" relative="1" as="geometry">
            <mxPoint x="9" y="29" as="sourcePoint" />
            <mxPoint x="39" y="29" as="targetPoint" />
          </mxGeometry>
        </mxCell>
        <mxCell id="NgLSc0mzdGRC1DNAPwiq-51" value="" style="shape=waypoint;sketch=0;fillStyle=solid;size=6;pointerEvents=1;points=[];fillColor=#0050ef;resizable=1;rotatable=1;perimeter=centerPerimeter;snapToPoint=1;strokeColor=#001DBC;rotation=90;movable=1;deletable=1;editable=1;locked=0;connectable=1;fontColor=#ffffff;" vertex="1" parent="NgLSc0mzdGRC1DNAPwiq-49">
          <mxGeometry x="-19" y="19" width="20" height="20" as="geometry" />
        </mxCell>
        <mxCell id="NgLSc0mzdGRC1DNAPwiq-52" value="" style="shape=or;whiteSpace=wrap;html=1;movable=1;resizable=1;rotatable=1;deletable=1;editable=1;locked=0;connectable=1;" vertex="1" parent="NgLSc0mzdGRC1DNAPwiq-48">
          <mxGeometry x="48.75" y="1.25" width="40" height="40" as="geometry" />
        </mxCell>
        <mxCell id="NgLSc0mzdGRC1DNAPwiq-53" value="" style="group;movable=1;resizable=1;rotatable=1;deletable=1;editable=1;locked=0;connectable=1;" vertex="1" connectable="0" parent="1">
          <mxGeometry x="630" y="600" width="88.75" height="41.25" as="geometry" />
        </mxCell>
        <mxCell id="NgLSc0mzdGRC1DNAPwiq-54" value="" style="group;rotation=90;movable=1;resizable=1;rotatable=1;deletable=1;editable=1;locked=0;connectable=1;" vertex="1" connectable="0" parent="NgLSc0mzdGRC1DNAPwiq-53">
          <mxGeometry x="18.75" y="-18.75" width="31" height="57.5" as="geometry" />
        </mxCell>
        <mxCell id="NgLSc0mzdGRC1DNAPwiq-56" value="" style="shape=waypoint;sketch=0;fillStyle=solid;size=6;pointerEvents=1;points=[];fillColor=#0050ef;resizable=1;rotatable=1;perimeter=centerPerimeter;snapToPoint=1;strokeColor=#001DBC;rotation=90;movable=1;deletable=1;editable=1;locked=0;connectable=1;fontColor=#ffffff;" vertex="1" parent="NgLSc0mzdGRC1DNAPwiq-54">
          <mxGeometry x="-19" y="19" width="20" height="20" as="geometry" />
        </mxCell>
        <mxCell id="NgLSc0mzdGRC1DNAPwiq-55" value="" style="endArrow=none;html=1;rounded=0;fillColor=#0050ef;strokeColor=#001DBC;movable=1;resizable=1;rotatable=1;deletable=1;editable=1;locked=0;connectable=1;" edge="1" parent="NgLSc0mzdGRC1DNAPwiq-54" source="NgLSc0mzdGRC1DNAPwiq-56">
          <mxGeometry width="50" height="50" relative="1" as="geometry">
            <mxPoint x="9" y="29" as="sourcePoint" />
            <mxPoint x="39" y="29" as="targetPoint" />
          </mxGeometry>
        </mxCell>
        <mxCell id="NgLSc0mzdGRC1DNAPwiq-74" value="" style="verticalLabelPosition=bottom;shadow=0;dashed=0;align=center;html=1;verticalAlign=top;shape=mxgraph.electrical.logic_gates.inverter_2;movable=1;resizable=1;rotatable=1;deletable=1;editable=1;locked=0;connectable=1;" vertex="1" parent="NgLSc0mzdGRC1DNAPwiq-54">
          <mxGeometry x="1" y="19" width="30" height="20" as="geometry" />
        </mxCell>
        <mxCell id="NgLSc0mzdGRC1DNAPwiq-79" value="&lt;font style=&quot;font-size: 13px;&quot;&gt;counter(1)&lt;/font&gt;" style="text;html=1;align=center;verticalAlign=middle;whiteSpace=wrap;rounded=0;movable=1;resizable=1;rotatable=1;deletable=1;editable=1;locked=0;connectable=1;" vertex="1" parent="NgLSc0mzdGRC1DNAPwiq-54">
          <mxGeometry x="-49" y="3.75" width="50" height="20" as="geometry" />
        </mxCell>
        <mxCell id="NgLSc0mzdGRC1DNAPwiq-57" value="" style="shape=or;whiteSpace=wrap;html=1;movable=1;resizable=1;rotatable=1;deletable=1;editable=1;locked=0;connectable=1;" vertex="1" parent="NgLSc0mzdGRC1DNAPwiq-53">
          <mxGeometry x="48.75" y="1.25" width="40" height="40" as="geometry" />
        </mxCell>
        <mxCell id="NgLSc0mzdGRC1DNAPwiq-58" value="" style="group;movable=1;resizable=1;rotatable=1;deletable=1;editable=1;locked=0;connectable=1;" vertex="1" connectable="0" parent="1">
          <mxGeometry x="750" y="600" width="88.75" height="41.25" as="geometry" />
        </mxCell>
        <mxCell id="NgLSc0mzdGRC1DNAPwiq-62" value="" style="shape=or;whiteSpace=wrap;html=1;movable=1;resizable=1;rotatable=1;deletable=1;editable=1;locked=0;connectable=1;" vertex="1" parent="NgLSc0mzdGRC1DNAPwiq-58">
          <mxGeometry x="48.75" y="1.25" width="40" height="40" as="geometry" />
        </mxCell>
        <mxCell id="NgLSc0mzdGRC1DNAPwiq-63" value="" style="endArrow=none;html=1;rounded=0;exitX=1;exitY=0.5;exitDx=0;exitDy=0;exitPerimeter=0;movable=1;resizable=1;rotatable=1;deletable=1;editable=1;locked=0;connectable=1;" edge="1" parent="1" source="NgLSc0mzdGRC1DNAPwiq-36">
          <mxGeometry width="50" height="50" relative="1" as="geometry">
            <mxPoint x="530" y="630" as="sourcePoint" />
            <mxPoint x="440" y="630" as="targetPoint" />
            <Array as="points">
              <mxPoint x="400" y="620" />
              <mxPoint x="400" y="630" />
            </Array>
          </mxGeometry>
        </mxCell>
        <mxCell id="NgLSc0mzdGRC1DNAPwiq-70" value="&lt;font style=&quot;font-size: 13px;&quot;&gt;counter(5)&lt;/font&gt;" style="text;html=1;align=center;verticalAlign=middle;whiteSpace=wrap;rounded=0;movable=1;resizable=1;rotatable=1;deletable=1;editable=1;locked=0;connectable=1;" vertex="1" parent="1">
          <mxGeometry x="260" y="585" width="50" height="20" as="geometry" />
        </mxCell>
        <mxCell id="NgLSc0mzdGRC1DNAPwiq-72" value="&lt;font style=&quot;font-size: 13px;&quot;&gt;counter(3)&lt;/font&gt;" style="text;html=1;align=center;verticalAlign=middle;whiteSpace=wrap;rounded=0;movable=1;resizable=1;rotatable=1;deletable=1;editable=1;locked=0;connectable=1;" vertex="1" parent="1">
          <mxGeometry x="380" y="585" width="50" height="20" as="geometry" />
        </mxCell>
        <mxCell id="NgLSc0mzdGRC1DNAPwiq-73" value="&lt;font style=&quot;font-size: 13px;&quot;&gt;counter(2)&lt;/font&gt;" style="text;html=1;align=center;verticalAlign=middle;whiteSpace=wrap;rounded=0;movable=1;resizable=1;rotatable=1;deletable=1;editable=1;locked=0;connectable=1;" vertex="1" parent="1">
          <mxGeometry x="500" y="585" width="50" height="20" as="geometry" />
        </mxCell>
        <mxCell id="NgLSc0mzdGRC1DNAPwiq-80" value="&lt;font style=&quot;font-size: 13px;&quot;&gt;counter(0)&lt;/font&gt;" style="text;html=1;align=center;verticalAlign=middle;whiteSpace=wrap;rounded=0;movable=1;resizable=1;rotatable=1;deletable=1;editable=1;locked=0;connectable=1;" vertex="1" parent="1">
          <mxGeometry x="720" y="585" width="50" height="20" as="geometry" />
        </mxCell>
        <mxCell id="NgLSc0mzdGRC1DNAPwiq-81" value="" style="endArrow=none;html=1;rounded=0;exitX=1;exitY=0.5;exitDx=0;exitDy=0;exitPerimeter=0;movable=1;resizable=1;rotatable=1;deletable=1;editable=1;locked=0;connectable=1;" edge="1" parent="1" source="NgLSc0mzdGRC1DNAPwiq-37">
          <mxGeometry width="50" height="50" relative="1" as="geometry">
            <mxPoint x="510" y="670" as="sourcePoint" />
            <mxPoint x="560" y="630" as="targetPoint" />
            <Array as="points">
              <mxPoint x="520" y="620" />
              <mxPoint x="520" y="630" />
            </Array>
          </mxGeometry>
        </mxCell>
        <mxCell id="NgLSc0mzdGRC1DNAPwiq-82" value="" style="endArrow=none;html=1;rounded=0;entryX=0.999;entryY=0.47;entryDx=0;entryDy=0;entryPerimeter=0;movable=1;resizable=1;rotatable=1;deletable=1;editable=1;locked=0;connectable=1;" edge="1" parent="1" target="NgLSc0mzdGRC1DNAPwiq-52">
          <mxGeometry width="50" height="50" relative="1" as="geometry">
            <mxPoint x="680" y="630" as="sourcePoint" />
            <mxPoint x="560" y="620" as="targetPoint" />
            <Array as="points">
              <mxPoint x="640" y="630" />
              <mxPoint x="640" y="620" />
            </Array>
          </mxGeometry>
        </mxCell>
        <mxCell id="NgLSc0mzdGRC1DNAPwiq-83" value="" style="endArrow=none;html=1;rounded=0;exitX=0;exitY=0.75;exitDx=0;exitDy=0;exitPerimeter=0;movable=1;resizable=1;rotatable=1;deletable=1;editable=1;locked=0;connectable=1;" edge="1" parent="1" source="NgLSc0mzdGRC1DNAPwiq-62">
          <mxGeometry width="50" height="50" relative="1" as="geometry">
            <mxPoint x="490" y="670" as="sourcePoint" />
            <mxPoint x="720" y="620" as="targetPoint" />
            <Array as="points">
              <mxPoint x="760" y="631" />
              <mxPoint x="760" y="620" />
            </Array>
          </mxGeometry>
        </mxCell>
        <mxCell id="NgLSc0mzdGRC1DNAPwiq-84" value="" style="endArrow=none;html=1;rounded=0;movable=1;resizable=1;rotatable=1;deletable=1;editable=1;locked=0;connectable=1;" edge="1" parent="1">
          <mxGeometry width="50" height="50" relative="1" as="geometry">
            <mxPoint x="230" y="480" as="sourcePoint" />
            <mxPoint x="840" y="620" as="targetPoint" />
            <Array as="points">
              <mxPoint x="230" y="420" />
              <mxPoint x="240" y="390" />
              <mxPoint x="240" y="360" />
              <mxPoint x="860" y="360" />
              <mxPoint x="860" y="620" />
            </Array>
          </mxGeometry>
        </mxCell>
        <mxCell id="NgLSc0mzdGRC1DNAPwiq-85" value="" style="group;rotation=90;flipH=1;movable=1;resizable=1;rotatable=1;deletable=1;editable=1;locked=0;connectable=1;" vertex="1" connectable="0" parent="1">
          <mxGeometry x="495" y="432.5" width="20" height="57.5" as="geometry" />
        </mxCell>
        <mxCell id="NgLSc0mzdGRC1DNAPwiq-86" value="" style="endArrow=none;html=1;rounded=0;fillColor=#0050ef;strokeColor=#001DBC;movable=1;resizable=1;rotatable=1;deletable=1;editable=1;locked=0;connectable=1;" edge="1" parent="NgLSc0mzdGRC1DNAPwiq-85" source="NgLSc0mzdGRC1DNAPwiq-87">
          <mxGeometry width="50" height="50" relative="1" as="geometry">
            <mxPoint x="11" y="29" as="sourcePoint" />
            <mxPoint x="-19" y="29" as="targetPoint" />
          </mxGeometry>
        </mxCell>
        <mxCell id="NgLSc0mzdGRC1DNAPwiq-91" value="//" style="edgeLabel;html=1;align=center;verticalAlign=middle;resizable=1;points=[];movable=1;rotatable=1;deletable=1;editable=1;locked=0;connectable=1;" vertex="1" connectable="0" parent="NgLSc0mzdGRC1DNAPwiq-86">
          <mxGeometry x="0.1069" relative="1" as="geometry">
            <mxPoint as="offset" />
          </mxGeometry>
        </mxCell>
        <mxCell id="NgLSc0mzdGRC1DNAPwiq-87" value="" style="shape=waypoint;sketch=0;fillStyle=solid;size=6;pointerEvents=1;points=[];fillColor=#0050ef;resizable=1;rotatable=1;perimeter=centerPerimeter;snapToPoint=1;strokeColor=#001DBC;rotation=90;movable=1;deletable=1;editable=1;locked=0;connectable=1;fontColor=#ffffff;" vertex="1" parent="NgLSc0mzdGRC1DNAPwiq-85">
          <mxGeometry x="19" y="19" width="20" height="20" as="geometry" />
        </mxCell>
        <mxCell id="NgLSc0mzdGRC1DNAPwiq-88" value="" style="group;rotation=90;flipH=1;movable=1;resizable=1;rotatable=1;deletable=1;editable=1;locked=0;connectable=1;" vertex="1" connectable="0" parent="1">
          <mxGeometry x="495" y="471.25" width="20" height="57.5" as="geometry" />
        </mxCell>
        <mxCell id="NgLSc0mzdGRC1DNAPwiq-89" value="" style="endArrow=none;html=1;rounded=0;fillColor=#e1d5e7;strokeColor=#000000;movable=1;resizable=1;rotatable=1;deletable=1;editable=1;locked=0;connectable=1;" edge="1" parent="NgLSc0mzdGRC1DNAPwiq-88" source="NgLSc0mzdGRC1DNAPwiq-90">
          <mxGeometry width="50" height="50" relative="1" as="geometry">
            <mxPoint x="11" y="29" as="sourcePoint" />
            <mxPoint x="-19" y="29" as="targetPoint" />
          </mxGeometry>
        </mxCell>
        <mxCell id="NgLSc0mzdGRC1DNAPwiq-90" value="" style="shape=waypoint;sketch=0;fillStyle=solid;size=6;pointerEvents=1;points=[];fillColor=#e1d5e7;resizable=1;rotatable=1;perimeter=centerPerimeter;snapToPoint=1;strokeColor=#000000;rotation=90;movable=1;deletable=1;editable=1;locked=0;connectable=1;" vertex="1" parent="NgLSc0mzdGRC1DNAPwiq-88">
          <mxGeometry x="19" y="19" width="20" height="20" as="geometry" />
        </mxCell>
        <mxCell id="NgLSc0mzdGRC1DNAPwiq-1" value="&lt;font style=&quot;font-size: 15px;&quot;&gt;Counter&lt;/font&gt;&lt;div&gt;&lt;font style=&quot;font-size: 15px;&quot;&gt;mod_64&lt;/font&gt;&lt;/div&gt;" style="rounded=0;whiteSpace=wrap;html=1;movable=1;resizable=1;rotatable=1;deletable=1;editable=1;locked=0;connectable=1;" vertex="1" parent="1">
          <mxGeometry x="360" y="400" width="120" height="160" as="geometry" />
        </mxCell>
        <mxCell id="NgLSc0mzdGRC1DNAPwiq-94" value="" style="group;flipV=1;movable=1;resizable=1;rotatable=1;deletable=1;editable=1;locked=0;connectable=1;" vertex="1" connectable="0" parent="1">
          <mxGeometry x="210" y="350" width="20" height="57.5" as="geometry" />
        </mxCell>
        <mxCell id="NgLSc0mzdGRC1DNAPwiq-95" value="" style="endArrow=none;html=1;rounded=0;fillColor=#e3c800;strokeColor=#B09500;movable=1;resizable=1;rotatable=1;deletable=1;editable=1;locked=0;connectable=1;" edge="1" parent="NgLSc0mzdGRC1DNAPwiq-94" source="NgLSc0mzdGRC1DNAPwiq-96">
          <mxGeometry width="50" height="50" relative="1" as="geometry">
            <mxPoint x="9.870000000000005" y="27.5" as="sourcePoint" />
            <mxPoint x="9.870000000000005" y="57.5" as="targetPoint" />
          </mxGeometry>
        </mxCell>
        <mxCell id="NgLSc0mzdGRC1DNAPwiq-96" value="" style="shape=waypoint;sketch=0;fillStyle=solid;size=6;pointerEvents=1;points=[];fillColor=#e3c800;resizable=1;rotatable=1;perimeter=centerPerimeter;snapToPoint=1;strokeColor=#B09500;movable=1;deletable=1;editable=1;locked=0;connectable=1;fontColor=#000000;" vertex="1" parent="NgLSc0mzdGRC1DNAPwiq-94">
          <mxGeometry width="20" height="20" as="geometry" />
        </mxCell>
        <mxCell id="NgLSc0mzdGRC1DNAPwiq-93" value="" style="shape=xor;whiteSpace=wrap;html=1;rotation=90;movable=1;resizable=1;rotatable=1;deletable=1;editable=1;locked=0;connectable=1;" vertex="1" parent="1">
          <mxGeometry x="210" y="380" width="40" height="40" as="geometry" />
        </mxCell>
      </root>
    </mxGraphModel>
  </diagram>
</mxfile>
